<svg aria-hidden="true" style="position:absolute;width:0;height:0" xmlns="http://www.w3.org/2000/svg" overflow="hidden"><defs><symbol id="cart" viewBox="0 0 32 32"><path d="M31.182 9.067l-4.409 9.778c-.22.488-.689.829-1.241.86h-.004l-12.658.844.729 2.092h13.796a2.933 2.933 0 1 1-2.933 2.935H10.773a2.934 2.934 0 1 1-2.933-2.934h2.649L4.836 6.509h-3.36a1.467 1.467 0 0 1 0-2.934h4.409a1.484 1.484 0 0 1 1.383.975l.003.01.853 2.441h21.714c.81 0 1.467.656 1.468 1.467-.005.217-.05.422-.129.61l.004-.011zm-22.026.865l2.702 7.746 12.604-.841 3.111-6.905H9.155z"/></symbol><symbol id="search" viewBox="0 0 32 32"><path d="M31.101 26.862a3 3 0 0 1-4.248 4.238l-8.769-8.78A11.896 11.896 0 0 1 11.952 24C5.307 24-.08 18.613-.08 11.968S5.307-.064 11.952-.064c6.645 0 12.032 5.387 12.032 12.032 0 2.255-.62 4.365-1.7 6.169l.03-.055 8.788 8.78zm-19.1-23.846a8.987 8.987 0 1 0 8.987 8.987 8.993 8.993 0 0 0-8.987-8.987z"/></symbol><symbol id="facebook" viewBox="0 0 32 32"><path d="M23.378.012v5.071s-3.738-.369-4.677 1.058c-.512.788-.208 3.077-.254 4.726h4.959c-.418 1.92-.719 3.225-1.028 4.898H18.42v15.754h-6.87V15.827H8.627v-4.96h2.891c.148-3.631.203-7.225 2.005-9.046C15.549-.234 17.484.012 23.378.012z"/></symbol><symbol id="instagram" viewBox="0 0 32 32"><path d="M27.962 31.988H3.981a3.997 3.997 0 0 1-3.997-3.997V4.01A3.997 3.997 0 0 1 3.981.013h23.981a3.997 3.997 0 0 1 3.997 3.997v23.981a3.997 3.997 0 0 1-3.997 3.997zM15.971 9.805h-.001a6.187 6.187 0 0 0-5.603 3.559l-.016.038a.343.343 0 0 1-.028.064l.001-.001c-.059.137-.11.275-.16.412-.024.062-.05.125-.071.187-.046.137-.084.287-.125.425a4.512 4.512 0 0 0-.052.2c-.032.15-.055.3-.076.462-.009.062-.021.125-.029.187a5.87 5.87 0 0 0-.036.661V16a6.195 6.195 0 1 0 12.39 0 6.56 6.56 0 0 0-.039-.691l.003.029c-.008-.062-.02-.125-.029-.187a5.709 5.709 0 0 0-.076-.462 8.453 8.453 0 0 0-.052-.2c-.035-.137-.072-.287-.125-.425-.021-.062-.047-.125-.071-.187a7.763 7.763 0 0 0-.16-.412.297.297 0 0 1-.027-.06l-.001-.002c-1.004-2.14-3.139-3.596-5.615-3.597zm12.391-4.597v-.003c0-.882-.715-1.596-1.596-1.596h-3.203c-.882 0-1.596.715-1.596 1.596v3.203c0 .882.715 1.596 1.596 1.596h3.203c.882 0 1.596-.715 1.596-1.596v-3.2zm0 8.194h-2.948c.222.778.35 1.671.35 2.594 0 5.408-4.384 9.792-9.792 9.792S6.18 21.404 6.18 15.996c0-.923.128-1.816.366-2.663l-.017.069H3.581v13.393c0 .882.715 1.596 1.596 1.596h21.589c.882 0 1.596-.715 1.596-1.596V13.402z"/></symbol><symbol id="pinterest" viewBox="0 0 32 32"><path d="M13.717 20.468c-.257 1.034-.517 2.105-.785 3.151a23.042 23.042 0 0 1-.937 3.201l.053-.161a15.669 15.669 0 0 1-2.536 4.372l.021-.027c-.708.812-.558.492-.77.443-.162-.037-.176-.197-.208-.418a24.204 24.204 0 0 1 .015-4.204l-.007.093c.113-1.575.371-3.035.762-4.44l-.037.157c.596-2.535 1.164-5.022 1.766-7.582.062-.16.102-.345.111-.538v-.004a7.704 7.704 0 0 1-.525-2.055l-.003-.037a6.7 6.7 0 0 1 .182-2.447l-.011.047a3.984 3.984 0 0 1 2.306-2.87l.026-.01c.259-.09.557-.142.867-.142.464 0 .901.116 1.283.322l-.014-.007c.547.332.939.874 1.065 1.512l.002.014a5.466 5.466 0 0 1-.108 2.364l.009-.038c-.329 1.502-.761 2.634-1.153 4.074a4.414 4.414 0 0 0-.282 1.565c0 .234.018.463.052.687l-.003-.025a2.62 2.62 0 0 0 1.035 1.57l.008.005a3.042 3.042 0 0 0 2.01.566l-.01.001a4.402 4.402 0 0 0 3.253-1.917l.01-.015a11.353 11.353 0 0 0 2.059-5.734l.002-.038a13.842 13.842 0 0 0 .085-2.509l.002.036a6.714 6.714 0 0 0-1.399-3.856l.012.016a6.52 6.52 0 0 0-3.046-2.092l-.046-.013a9.969 9.969 0 0 0-2.914-.425c-.6 0-1.187.052-1.758.151l.061-.009a8.165 8.165 0 0 0-6.028 4.3l-.021.045a8.61 8.61 0 0 0-1.031 4.112v.089-.005a5.44 5.44 0 0 0 .847 3.099l-.013-.022c.164.246.404.455.564.738a2.097 2.097 0 0 1-.152 1.44l.006-.012c-.135.529-.15 1.243-.761 1.255a1.698 1.698 0 0 1-.791-.299l.005.004a6.303 6.303 0 0 1-2.978-4.572l-.003-.031c-.116-.598-.182-1.285-.182-1.988s.066-1.39.193-2.056l-.011.068a11.42 11.42 0 0 1 5.363-7.54l.053-.029A12.604 12.604 0 0 1 14.025.156l.066-.007a15.878 15.878 0 0 1 1.958-.16h.017a11.805 11.805 0 0 1 5.4 1.015l-.075-.03c1.44.646 2.66 1.539 3.66 2.637l.008.009a9.99 9.99 0 0 1 2.24 4.003l.017.071c.287.837.465 1.802.492 2.806v.013a17.108 17.108 0 0 1-.401 3.031l.022-.114a11.486 11.486 0 0 1-4.69 7.915l-.034.023a8.443 8.443 0 0 1-4.938 1.353h.015a5.693 5.693 0 0 1-2.469-.729l.028.015a4.102 4.102 0 0 1-1.613-1.52l-.01-.018z"/></symbol><symbol id="twitter" viewBox="0 0 32 32"><path d="M21.439 3.089a6.62 6.62 0 0 1 5.107 2.028l.002.002a10.627 10.627 0 0 0 3.368-1.148l-.056.028.804-.443a6.52 6.52 0 0 1-2.08 3.031l-.012.009a3.118 3.118 0 0 1-.693.497l-.017.008v.012a12.001 12.001 0 0 0 3.734-1.015l-.075.031v.012a10.594 10.594 0 0 1-2.175 2.497l-.017.014c-.336.271-.673.542-1.009.8a18.71 18.71 0 0 1-.318 4.277l.019-.117c-1.615 7.249-5.893 12.172-12.663 14.289-1.607.478-3.453.753-5.363.753-1.339 0-2.647-.135-3.91-.392l.125.021a24.246 24.246 0 0 1-3.959-1.304l.16.061a15.67 15.67 0 0 1-1.9-.987l.07.04c-.19-.111-.378-.234-.567-.345a11.016 11.016 0 0 0 2.095.072l-.03.001c.636-.098 1.259-.074 1.846-.197a13.222 13.222 0 0 0 3.945-1.438l-.067.034a7.377 7.377 0 0 0 1.759-1.151l-.008.007a5.627 5.627 0 0 1-1.963-.357l.039.013a6.547 6.547 0 0 1-4.087-4.089l-.013-.046a6.412 6.412 0 0 0 2.931-.146l-.045.011a4.63 4.63 0 0 1-2.126-.858l.013.009c-1.836-1.097-3.047-3.074-3.047-5.334 0-.067.001-.135.003-.202v.01c.222.098.442.209.662.308.389.163.844.296 1.316.376l.037.005a1.738 1.738 0 0 0 .894.072l-.011.002h-.032c-.325-.369-.855-.628-1.183-1.034a6.572 6.572 0 0 1-1.628-4.341c0-.538.064-1.061.186-1.562l-.009.045a7.374 7.374 0 0 1 .713-1.722l-.019.036c.011 0 .021.012.032.012.173.255.365.477.581.674l.003.003a11.717 11.717 0 0 0 1.896 1.826l.028.02a18.873 18.873 0 0 0 7.773 3.791l.127.024a12.15 12.15 0 0 0 2.893.381h.009a6.066 6.066 0 0 1 .041-3.083l-.01.042a6.385 6.385 0 0 1 3.618-4.316l.041-.016a6.97 6.97 0 0 1 1.388-.435l.047-.008c.261-.037.524-.062.786-.098z"/></symbol></defs></svg>